<svg width="1510" height="1576" viewBox="0 0 1510 1576" fill="none" xmlns="http://www.w3.org/2000/svg">
<path d="M1136.15 884.186C1136.15 884.186 1037.7 1214.29 638.962 1079.72C638.962 1079.72 255.574 904.958 295.765 509.829C295.765 509.829 386.983 25.2882 873.33 13.0956C891.845 12.6441 905.392 29.8039 900.425 47.867L758.178 562.212C757.275 566.276 756.372 569.889 756.372 573.953C756.372 589.758 762.243 624.981 814.174 623.175C835.398 622.272 855.267 613.24 870.621 598.79C892.297 578.469 934.745 550.471 986.676 572.147C987.127 572.147 1189.89 627.691 1136.15 884.186Z" fill="#0085FF"/>
<path d="M1507.34 65.93L1403.48 416.805C1397.16 438.48 1376.84 453.382 1354.26 453.382H931.585C897.265 453.382 872.429 420.417 882.363 387.452L986.226 36.5776C992.548 14.902 1012.87 0 1035.45 0H1458.12C1492.44 0 1516.83 32.965 1507.34 65.93Z" fill="#0085FF"/>
<path d="M620.9 1134.36L618.191 1133.46L615.482 1132.1C610.966 1130.29 508.91 1082.88 411.821 983.081C324.215 893.217 268.671 789.355 246.544 676.461L2.69303 1492.91C-9.49952 1534.46 21.2076 1576 64.5589 1576H452.463C481.364 1576 507.103 1556.58 514.78 1528.58L624.062 1134.81C623.158 1134.81 621.804 1134.36 620.9 1134.36Z" fill="#0085FF"/>
</svg>
