<svg width="1650" height="1650" viewBox="0 0 1650 1650" fill="none" xmlns="http://www.w3.org/2000/svg">
<rect width="1650" height="1650" rx="200" fill="#0085FF"/>
<path d="M1056.24 883.165C1056.24 883.165 996.431 1083.71 754.186 1001.96C754.186 1001.96 521.268 895.785 545.684 655.734C545.684 655.734 601.102 361.363 896.57 353.955C907.818 353.681 916.049 364.106 913.031 375.08L826.612 687.558C826.064 690.027 825.515 692.221 825.515 694.691C825.515 704.293 829.082 725.691 860.631 724.594C873.525 724.045 885.596 718.559 894.924 709.78C908.093 697.434 933.881 680.425 965.43 693.593C965.705 693.593 1088.89 727.338 1056.24 883.165Z" fill="#F4F4F4"/>
<path d="M1281.75 386.054L1218.65 599.219C1214.81 612.388 1202.46 621.441 1188.74 621.441H931.958C911.108 621.441 896.019 601.414 902.055 581.387L965.154 368.222C968.995 355.053 981.34 346 995.058 346H1251.84C1272.69 346 1287.51 366.027 1281.75 386.054Z" fill="#F4F4F4"/>
<path d="M743.213 1035.15L741.567 1034.6L739.921 1033.78C737.177 1032.68 675.176 1003.88 616.192 943.247C562.969 888.652 529.225 825.553 515.782 756.967L367.636 1252.98C360.229 1278.22 378.884 1303.46 405.221 1303.46H640.883C658.441 1303.46 674.078 1291.66 678.742 1274.65L745.133 1035.43C744.585 1035.43 743.761 1035.15 743.213 1035.15Z" fill="#F4F4F4"/>
</svg>
