<svg width="336" height="350" viewBox="0 0 336 350" fill="none" xmlns="http://www.w3.org/2000/svg">
<path d="M252.5 196.1C252.5 196.1 230.7 269.2 142.4 239.4C142.4 239.4 57.4999 200.7 66.3999 113.2C66.3999 113.2 86.5999 5.89999 194.3 3.19999C198.4 3.09999 201.4 6.89999 200.3 10.9L168.8 124.8C168.6 125.7 168.4 126.5 168.4 127.4C168.4 130.9 169.7 138.7 181.2 138.3C185.9 138.1 190.3 136.1 193.7 132.9C198.5 128.4 207.9 122.2 219.4 127C219.5 127 264.4 139.3 252.5 196.1Z" fill="#F4F4F4"/>
<path d="M334.7 14.9L311.7 92.6C310.3 97.4 305.8 100.7 300.8 100.7H207.2C199.6 100.7 194.1 93.4 196.3 86.1L219.3 8.39998C220.7 3.59998 225.2 0.299988 230.2 0.299988H323.8C331.4 0.299988 336.8 7.59998 334.7 14.9Z" fill="#F4F4F4"/>
<path d="M138.4 251.5L137.8 251.3L137.2 251C136.2 250.6 113.6 240.1 92.0997 218C72.6997 198.1 60.3997 175.1 55.4997 150.1L1.49968 330.9C-1.20032 340.1 5.59968 349.3 15.1997 349.3H101.1C107.5 349.3 113.2 345 114.9 338.8L139.1 251.6C138.9 251.6 138.6 251.5 138.4 251.5Z" fill="#F4F4F4"/>
</svg>
